<svg id="Layer_1" data-name="Layer 1" xmlns="http://www.w3.org/2000/svg" viewBox="0 0 48.78 58.35"><defs><style>.cls-1{fill:#0165c3;}.cls-2{fill:#fff;}</style></defs><polygon class="cls-1" points="3.63 14.85 0 52.01 29 47.47 22.66 58.35 41.76 45.41 48.78 44.37 35.38 10.61 3.63 14.85"/><path class="cls-1" d="M13.81,17.29h-.9c0-.52.08-12.83,7.45-14.38a7.89,7.89,0,0,1,6.44,1.2c4.47,3.15,5.5,10.45,5.54,10.75l-.9.13c0-.08-1-7.22-5.16-10.14a7.05,7.05,0,0,0-5.74-1C13.9,5.2,13.81,17.17,13.81,17.29Z" transform="translate(-3.23 -2.7)"/><path class="cls-2" d="M27.51,20.4V26S10.72,24.75,10.72,46.64c0,0,7.46-11.19,16.79-11.19v8.21L40.94,30.72Z" transform="translate(-3.23 -2.7)"/></svg>