<?xml version="1.0" encoding="utf-8"?>
<!-- Generator: Adobe Illustrator 25.2.1, SVG Export Plug-In . SVG Version: 6.00 Build 0)  -->
<svg version="1.1" id="Layer_1" xmlns="http://www.w3.org/2000/svg" xmlns:xlink="http://www.w3.org/1999/xlink" x="0px" y="0px"
	 viewBox="0 0 259 98" style="enable-background:new 0 0 259 98;" xml:space="preserve">
<style type="text/css">
	.st0{fill:#0165C3;}
	.st1{fill:#FFFFFF;}
	.st2{fill:#444444;}
	.st3{fill:#808080;}
</style>
<g>
	<path class="st0" d="M55.7,22.08l-9.68,1.29c-0.56-2.96-2.58-11.26-8.21-15.23c-2.8-1.98-6.09-2.59-9.77-1.81
		c-9.96,2.1-11.13,17.17-11.27,20.95L7.59,28.5L2.1,84.79l43.93-6.86L36.42,94.4l28.94-19.6L76,73.22L55.7,22.08z M28.32,7.67
		c3.29-0.69,6.22-0.16,8.69,1.59c5.11,3.61,7.08,11.44,7.64,14.29l-26.49,3.54C18.35,23.21,19.64,9.5,28.32,7.67z"/>
	<path class="st1" d="M38.88,41.3c0,0-25.44-1.88-25.44,31.28c0,0,11.31-16.96,25.44-16.96v12.44l20.35-19.6L38.88,32.82V41.3z"/>
	<g>
		<path class="st2" d="M251.87,30.06v0.5h-0.97v2.54h-0.6v-2.54h-0.97v-0.5H251.87z M255.15,33.09l-0.11-1.79
			c-0.01-0.23-0.01-0.52-0.02-0.85h-0.03c-0.08,0.27-0.17,0.62-0.26,0.9l-0.55,1.69h-0.62l-0.55-1.73
			c-0.06-0.24-0.14-0.59-0.21-0.86h-0.03c0,0.28-0.01,0.57-0.02,0.85l-0.11,1.79h-0.58l0.22-3.04h0.9l0.53,1.49
			c0.07,0.23,0.12,0.46,0.2,0.77h0.01c0.08-0.28,0.15-0.54,0.21-0.76l0.53-1.5h0.87l0.23,3.04H255.15z"/>
	</g>
	<g>
		<path class="st2" d="M193.89,89.92c-1.7,0-3.1-0.58-4.2-1.75c-1.1-1.16-1.65-2.63-1.65-4.41c0-1.76,0.53-3.23,1.6-4.4
			c1.07-1.17,2.44-1.76,4.1-1.76c1.71,0,3.08,0.55,4.09,1.66c1.01,1.11,1.52,2.66,1.52,4.66l-0.02,0.24h-9.08
			c0.03,1.13,0.41,2.04,1.13,2.74c0.72,0.69,1.59,1.04,2.6,1.04c1.38,0,2.47-0.69,3.26-2.08l1.93,0.94
			c-0.52,0.98-1.24,1.74-2.16,2.29C196.1,89.64,195.05,89.92,193.89,89.92z M190.42,82.37h6.63c-0.06-0.8-0.39-1.47-0.98-1.99
			c-0.59-0.53-1.38-0.79-2.37-0.79c-0.82,0-1.52,0.25-2.11,0.75C191,80.84,190.61,81.52,190.42,82.37z"/>
		<path class="st2" d="M204.69,77.98h5.19V76.3c0-1.15,0.37-2.08,1.1-2.78c0.73-0.71,1.67-1.06,2.82-1.06c0.79,0,1.43,0.13,1.93,0.4
			l-0.59,1.91c-0.38-0.19-0.8-0.28-1.27-0.28c-0.53,0-0.97,0.19-1.31,0.55c-0.34,0.37-0.51,0.86-0.51,1.47v1.46h3.02v1.98h-3.02
			v9.58h-2.17v-9.58h-5.19v9.58h-2.17v-9.58h-2.17v-1.98h2.17V76.3c0-1.15,0.37-2.08,1.1-2.78c0.73-0.71,1.67-1.06,2.82-1.06
			c0.79,0,1.43,0.13,1.93,0.4l-0.59,1.91c-0.38-0.19-0.8-0.28-1.27-0.28c-0.53,0-0.97,0.19-1.31,0.55
			c-0.34,0.37-0.51,0.86-0.51,1.47V77.98z"/>
		<path class="st2" d="M221.64,89.92c-1.7,0-3.1-0.58-4.2-1.75c-1.1-1.16-1.65-2.63-1.65-4.41c0-1.76,0.53-3.23,1.6-4.4
			c1.07-1.17,2.44-1.76,4.1-1.76c1.71,0,3.08,0.55,4.09,1.66c1.01,1.11,1.52,2.66,1.52,4.66l-0.02,0.24H218
			c0.03,1.13,0.41,2.04,1.13,2.74c0.72,0.69,1.59,1.04,2.6,1.04c1.38,0,2.47-0.69,3.26-2.08l1.93,0.94
			c-0.52,0.98-1.24,1.74-2.16,2.29C223.84,89.64,222.8,89.92,221.64,89.92z M218.17,82.37h6.63c-0.06-0.8-0.39-1.47-0.98-1.99
			c-0.59-0.53-1.38-0.79-2.37-0.79c-0.82,0-1.52,0.25-2.11,0.75C218.74,80.84,218.36,81.52,218.17,82.37z"/>
		<path class="st2" d="M234.49,89.92c-1.71,0-3.14-0.58-4.27-1.75c-1.12-1.2-1.68-2.67-1.68-4.41c0-1.78,0.56-3.25,1.68-4.41
			c1.13-1.16,2.56-1.75,4.27-1.75c1.18,0,2.21,0.29,3.09,0.88c0.88,0.59,1.54,1.4,1.98,2.44l-1.98,0.83
			c-0.61-1.45-1.69-2.17-3.23-2.17c-0.99,0-1.85,0.4-2.57,1.2c-0.71,0.8-1.06,1.79-1.06,2.97c0,1.18,0.35,2.17,1.06,2.97
			c0.72,0.8,1.58,1.2,2.57,1.2c1.59,0,2.7-0.72,3.35-2.17l1.93,0.83c-0.43,1.04-1.09,1.85-1.99,2.44
			C236.74,89.62,235.69,89.92,234.49,89.92z"/>
		<path class="st2" d="M245.98,89.73c-0.94,0-1.73-0.29-2.35-0.87c-0.62-0.58-0.94-1.39-0.96-2.43v-6.46h-2.03v-1.98h2.03v-3.54
			h2.17v3.54h2.83v1.98h-2.83v5.76c0,0.77,0.15,1.29,0.45,1.57c0.3,0.28,0.64,0.41,1.01,0.41c0.17,0,0.34-0.02,0.51-0.06
			c0.16-0.04,0.32-0.09,0.46-0.15l0.68,1.93C247.4,89.62,246.74,89.73,245.98,89.73z"/>
	</g>
	<g>
		<g>
			<g>
				<path class="st0" d="M219.11,40.44h6.73v25.29h-6.73V40.44z"/>
			</g>
			<g>
				<path class="st0" d="M234.42,46.02h-4.29v-5.58h4.29V30.03h6.53v10.41h5.98v5.58h-5.98v10.62c0,0.58,0.06,1.12,0.17,1.62
					c0.12,0.5,0.34,0.92,0.67,1.26c0.47,0.55,1.13,0.82,2,0.82c0.56,0,1.01-0.06,1.35-0.17c0.33-0.12,0.65-0.27,0.95-0.47l1.85,5.73
					c-0.76,0.36-1.59,0.64-2.47,0.82c-0.88,0.18-1.85,0.27-2.92,0.27c-1.23,0-2.34-0.2-3.32-0.59c-0.98-0.39-1.8-0.92-2.47-1.6
					c-1.56-1.53-2.34-3.7-2.34-6.51V46.02z"/>
			</g>
		</g>
		<g>
			<path class="st0" d="M223.93,30.03h1.91v6.47h-6.73v-1.66C219.11,32.18,221.27,30.03,223.93,30.03z"/>
		</g>
	</g>
	<g>
		<g>
			<path class="st2" d="M98.57,66.53c-1.53,0-2.99-0.22-4.39-0.65c-1.4-0.43-2.68-1.08-3.84-1.94c-1.16-0.86-2.18-1.92-3.04-3.17
				c-0.86-1.25-1.55-2.7-2.04-4.36l6.33-2.49c0.47,1.8,1.28,3.28,2.44,4.46c1.16,1.18,2.69,1.77,4.59,1.77
				c0.7,0,1.37-0.09,2.02-0.27c0.65-0.18,1.23-0.45,1.74-0.8c0.51-0.35,0.92-0.79,1.22-1.32c0.3-0.53,0.45-1.15,0.45-1.85
				c0-0.66-0.12-1.26-0.35-1.79c-0.23-0.53-0.62-1.03-1.17-1.5c-0.55-0.47-1.26-0.91-2.14-1.35c-0.88-0.43-1.97-0.88-3.27-1.35
				l-2.19-0.8c-0.96-0.33-1.94-0.78-2.92-1.35c-0.98-0.57-1.87-1.25-2.67-2.04c-0.8-0.8-1.45-1.74-1.97-2.82
				c-0.52-1.08-0.77-2.3-0.77-3.67c0-1.4,0.27-2.7,0.82-3.91c0.55-1.21,1.33-2.28,2.34-3.19c1.01-0.91,2.23-1.63,3.64-2.14
				c1.41-0.51,2.98-0.77,4.71-0.77c1.8,0,3.35,0.24,4.66,0.72c1.31,0.48,2.43,1.1,3.34,1.84c0.91,0.75,1.65,1.57,2.22,2.47
				c0.56,0.9,0.98,1.74,1.25,2.54l-5.93,2.49c-0.33-1-0.94-1.9-1.82-2.69c-0.88-0.8-2.09-1.2-3.62-1.2c-1.46,0-2.68,0.34-3.64,1.02
				c-0.96,0.68-1.45,1.57-1.45,2.67c0,1.06,0.47,1.97,1.4,2.72c0.93,0.75,2.41,1.47,4.44,2.17l2.24,0.75
				c1.43,0.5,2.73,1.07,3.91,1.72c1.18,0.65,2.19,1.42,3.04,2.32c0.85,0.9,1.5,1.92,1.94,3.07c0.45,1.15,0.67,2.47,0.67,3.96
				c0,1.86-0.37,3.47-1.12,4.81c-0.75,1.35-1.7,2.45-2.87,3.32c-1.16,0.86-2.48,1.51-3.94,1.94
				C101.39,66.31,99.96,66.53,98.57,66.53z"/>
		</g>
		<g>
			<path class="st2" d="M115.52,30.03h6.53v10.02l-0.4,4.44h0.4c0.7-1.16,1.7-2.12,3.02-2.87c1.31-0.75,2.78-1.12,4.41-1.12
				c3.16,0,5.49,0.93,7.01,2.79c1.51,1.86,2.27,4.41,2.27,7.63v14.81h-6.53V51.72c0-1.7-0.4-2.98-1.2-3.86
				c-0.8-0.88-1.91-1.32-3.34-1.32c-0.9,0-1.7,0.19-2.39,0.57c-0.7,0.38-1.29,0.91-1.77,1.57c-0.48,0.67-0.85,1.44-1.1,2.32
				c-0.25,0.88-0.37,1.82-0.37,2.82v11.92h-6.53V30.03z"/>
		</g>
		<g>
			<path class="st2" d="M158.95,63.14h-0.4c-0.76,0.93-1.69,1.73-2.77,2.39c-1.08,0.67-2.47,1-4.16,1c-1.26,0-2.45-0.21-3.57-0.62
				c-1.11-0.41-2.09-0.99-2.92-1.72c-0.83-0.73-1.48-1.61-1.94-2.64c-0.47-1.03-0.7-2.16-0.7-3.39c0-1.26,0.25-2.4,0.75-3.42
				c0.5-1.01,1.2-1.89,2.09-2.62c0.9-0.73,1.95-1.29,3.17-1.67c1.21-0.38,2.53-0.57,3.96-0.57c1.6,0,2.91,0.12,3.94,0.37
				c1.03,0.25,1.88,0.51,2.54,0.77v-0.75c0-1.3-0.52-2.37-1.55-3.22c-1.03-0.85-2.31-1.27-3.84-1.27c-2.26,0-4.17,0.95-5.73,2.84
				l-4.74-3.24c2.59-3.26,6.13-4.89,10.62-4.89c3.79,0,6.68,0.89,8.68,2.67c1.99,1.78,2.99,4.41,2.99,7.9v14.66h-6.43V63.14z
				 M158.95,55.81c-0.76-0.37-1.55-0.66-2.37-0.87c-0.82-0.22-1.7-0.32-2.67-0.32c-1.56,0-2.77,0.34-3.62,1.02
				c-0.85,0.68-1.27,1.52-1.27,2.52c0,1,0.41,1.8,1.22,2.39c0.81,0.6,1.75,0.9,2.82,0.9c0.86,0,1.66-0.16,2.39-0.47
				c0.73-0.32,1.35-0.73,1.87-1.25c0.51-0.51,0.91-1.11,1.2-1.8C158.81,57.25,158.95,56.54,158.95,55.81z"/>
		</g>
		<g>
			<path class="st2" d="M170.57,41.3h6.13v3.39h0.4c0.3-0.6,0.7-1.15,1.2-1.65c0.5-0.5,1.06-0.93,1.67-1.3
				c0.61-0.37,1.28-0.67,1.99-0.9c0.71-0.23,1.42-0.34,2.12-0.34c0.86,0,1.6,0.09,2.22,0.28c0.61,0.18,1.14,0.42,1.57,0.72
				l-1.75,5.83c-0.4-0.2-0.84-0.36-1.32-0.47c-0.48-0.12-1.07-0.17-1.77-0.17c-0.9,0-1.71,0.18-2.44,0.53
				c-0.73,0.35-1.36,0.84-1.87,1.48c-0.52,0.63-0.91,1.38-1.2,2.23c-0.28,0.85-0.42,1.78-0.42,2.78v12.03h-6.53V41.3z"/>
		</g>
	</g>
	<g>
		<g>
			<path class="st2" d="M214.25,54c-0.14,2.29-0.79,4.41-1.97,6.35c-1.17,1.95-3,3.53-5.48,4.74c-1.67,0.82-3.36,1.29-5.06,1.4
				c-1.7,0.11-3.33-0.1-4.89-0.63c-1.56-0.53-2.97-1.36-4.25-2.5c-1.28-1.13-2.33-2.55-3.17-4.25c-0.78-1.58-1.23-3.22-1.36-4.92
				c-0.13-1.7,0.05-3.32,0.55-4.88s1.28-2.99,2.36-4.3c1.08-1.31,2.46-2.37,4.13-3.19c1.76-0.86,3.47-1.34,5.13-1.43
				c1.66-0.09,3.2,0.15,4.63,0.73c1.43,0.58,2.73,1.45,3.89,2.62c1.17,1.17,2.15,2.57,2.96,4.22c0.1,0.21,0.19,0.39,0.26,0.54
				c0.06,0.19,0.12,0.37,0.2,0.51c0.04,0.16,0.11,0.34,0.2,0.51l-16.52,8.1c0.56,0.84,1.18,1.48,1.87,1.94
				c0.69,0.46,1.41,0.77,2.18,0.93c0.76,0.16,1.52,0.18,2.27,0.05c0.75-0.13,1.47-0.36,2.16-0.7c1.34-0.66,2.3-1.51,2.89-2.55
				c0.58-1.04,0.9-2.15,0.95-3.33L214.25,54z M204.75,48.11c-0.22-0.37-0.56-0.74-1.02-1.11c-0.46-0.37-1.01-0.65-1.64-0.86
				c-0.64-0.21-1.34-0.28-2.12-0.24c-0.77,0.05-1.61,0.29-2.5,0.73c-1.25,0.62-2.18,1.51-2.79,2.7c-0.6,1.18-0.78,2.51-0.54,3.99
				L204.75,48.11z"/>
		</g>
	</g>
</g>
<g>
	<path class="st3" d="M92.17,12.88v4.17h-1.41V6.66h3.98c1.11,0,1.97,0.29,2.58,0.86s0.92,1.32,0.92,2.26c0,0.95-0.31,1.7-0.92,2.27
		s-1.48,0.85-2.58,0.85H92.17z M92.17,11.78h2.57c0.71,0,1.23-0.19,1.58-0.57c0.35-0.38,0.52-0.85,0.52-1.43
		c0-0.58-0.17-1.06-0.52-1.44c-0.35-0.39-0.88-0.58-1.58-0.58h-2.57V11.78z"/>
	<path class="st3" d="M99.44,13.12c0-1.14,0.31-2.08,0.93-2.82s1.46-1.11,2.52-1.11c1.07,0,1.92,0.37,2.54,1.11
		c0.62,0.74,0.93,1.68,0.93,2.83v0.16c0,1.15-0.31,2.09-0.93,2.83c-0.62,0.73-1.46,1.1-2.53,1.1s-1.91-0.37-2.53-1.1
		c-0.62-0.74-0.93-1.68-0.93-2.82V13.12z M100.85,13.27c0,0.82,0.17,1.49,0.52,2.03c0.34,0.53,0.86,0.8,1.54,0.8
		c0.67,0,1.18-0.27,1.53-0.8c0.35-0.53,0.52-1.21,0.52-2.03v-0.16c0-0.81-0.17-1.48-0.52-2.02s-0.86-0.81-1.54-0.81
		c-0.67,0-1.18,0.27-1.52,0.81c-0.35,0.54-0.52,1.21-0.52,2.02V13.27z"/>
	<path class="st3" d="M110.06,14.24l0.16,0.94h0.04l0.2-0.94l1.54-4.91h1.13l1.55,4.91l0.22,1.04h0.04l0.21-1.04l1.21-4.91h1.4
		l-2.24,7.73h-1.13l-1.49-4.71l-0.32-1.31l-0.04,0.01l-0.31,1.31l-1.47,4.71h-1.14l-2.24-7.73h1.4L110.06,14.24z"/>
	<path class="st3" d="M122.36,17.2c-1.08,0-1.93-0.36-2.57-1.07c-0.64-0.72-0.95-1.65-0.95-2.79v-0.31c0-1.1,0.33-2.02,0.98-2.75
		c0.66-0.73,1.43-1.1,2.33-1.1c1.04,0,1.83,0.31,2.36,0.94s0.8,1.47,0.8,2.51v0.88h-5.01l-0.02,0.04c0.01,0.74,0.2,1.35,0.56,1.83
		c0.36,0.48,0.87,0.72,1.52,0.72c0.48,0,0.89-0.07,1.25-0.2c0.36-0.14,0.67-0.32,0.93-0.56l0.55,0.92c-0.28,0.27-0.64,0.5-1.09,0.68
		S123,17.2,122.36,17.2z M122.14,10.29c-0.47,0-0.87,0.2-1.21,0.59c-0.33,0.4-0.54,0.89-0.61,1.49l0.01,0.04h3.56v-0.19
		c0-0.55-0.15-1.01-0.44-1.38S122.72,10.29,122.14,10.29z"/>
	<path class="st3" d="M130.54,10.57l-0.72-0.04c-0.37,0-0.68,0.09-0.94,0.26c-0.25,0.18-0.45,0.42-0.59,0.74v5.52h-1.41V9.33h1.26
		l0.14,1.13c0.22-0.4,0.49-0.71,0.81-0.94c0.32-0.22,0.69-0.34,1.11-0.34c0.1,0,0.2,0.01,0.3,0.02c0.09,0.02,0.17,0.03,0.24,0.05
		L130.54,10.57z"/>
	<path class="st3" d="M134.97,17.2c-1.08,0-1.93-0.36-2.57-1.07c-0.64-0.72-0.95-1.65-0.95-2.79v-0.31c0-1.1,0.33-2.02,0.98-2.75
		c0.66-0.73,1.43-1.1,2.33-1.1c1.04,0,1.83,0.31,2.36,0.94s0.8,1.47,0.8,2.51v0.88h-5.01l-0.02,0.04c0.01,0.74,0.2,1.35,0.56,1.83
		c0.36,0.48,0.87,0.72,1.52,0.72c0.48,0,0.89-0.07,1.25-0.2c0.36-0.14,0.67-0.32,0.93-0.56l0.55,0.92c-0.28,0.27-0.64,0.5-1.09,0.68
		S135.61,17.2,134.97,17.2z M134.76,10.29c-0.47,0-0.87,0.2-1.21,0.59c-0.33,0.4-0.54,0.89-0.61,1.49l0.01,0.04h3.56v-0.19
		c0-0.55-0.15-1.01-0.44-1.38S135.34,10.29,134.76,10.29z"/>
	<path class="st3" d="M139.18,13.33c0-1.24,0.26-2.24,0.8-3.01c0.53-0.76,1.27-1.14,2.23-1.14c0.45,0,0.85,0.08,1.2,0.25
		c0.35,0.17,0.65,0.41,0.9,0.73V5.91h1.41v11.14h-1.15l-0.16-0.95c-0.25,0.36-0.56,0.64-0.93,0.82c-0.37,0.19-0.79,0.28-1.28,0.28
		c-0.94,0-1.68-0.34-2.21-1.02c-0.53-0.68-0.8-1.58-0.8-2.7V13.33z M140.58,13.48c0,0.78,0.16,1.41,0.48,1.87
		c0.32,0.47,0.81,0.7,1.49,0.7c0.42,0,0.77-0.1,1.06-0.29c0.29-0.19,0.52-0.46,0.7-0.8v-3.61c-0.18-0.32-0.42-0.57-0.7-0.76
		s-0.63-0.28-1.04-0.28c-0.68,0-1.17,0.28-1.5,0.84c-0.32,0.56-0.48,1.28-0.48,2.17V13.48z"/>
	<path class="st3" d="M158.04,13.48c0,1.11-0.27,2.01-0.8,2.7c-0.54,0.68-1.27,1.02-2.21,1.02c-0.51,0-0.95-0.1-1.33-0.3
		c-0.38-0.2-0.69-0.49-0.94-0.87l-0.17,1.02h-1.15V5.91h1.41v4.33c0.24-0.34,0.54-0.6,0.9-0.79c0.36-0.18,0.78-0.27,1.26-0.27
		c0.95,0,1.69,0.38,2.23,1.14s0.8,1.76,0.8,3.01V13.48z M156.64,13.33c0-0.89-0.16-1.61-0.49-2.17s-0.82-0.84-1.49-0.84
		c-0.43,0-0.8,0.11-1.1,0.32c-0.3,0.21-0.54,0.5-0.71,0.85v3.35c0.18,0.38,0.42,0.68,0.71,0.89s0.66,0.32,1.11,0.32
		c0.66,0,1.15-0.24,1.48-0.71c0.32-0.47,0.49-1.09,0.49-1.87V13.33z"/>
	<path class="st3" d="M162.04,14.19l0.25,0.97h0.04l1.9-5.83h1.56l-3.25,8.91c-0.2,0.52-0.47,0.97-0.84,1.36
		c-0.36,0.39-0.86,0.58-1.47,0.58c-0.11,0-0.26-0.01-0.44-0.04c-0.18-0.03-0.31-0.05-0.41-0.08l0.14-1.11c-0.03,0,0.06,0,0.25,0.01
		c0.2,0.01,0.32,0.02,0.38,0.02c0.3,0,0.54-0.13,0.74-0.4s0.35-0.56,0.48-0.89l0.34-0.81l-2.87-7.57h1.57L162.04,14.19z"/>
	<path class="st3" d="M167.39,10.8h-1.41V9.34h1.41V10.8z M167.39,17.05h-1.41V15.6h1.41V17.05z"/>
</g>
</svg>
